<?xml version="1.0" encoding="UTF-8"?><svg id="_图层_2" xmlns="http://www.w3.org/2000/svg" width="112.79" height="128" viewBox="0 0 112.79 128"><defs><style>.cls-1{fill:#f86657;}.cls-2{fill:#e74c3c;}.cls-3{fill:#1abc9c;}.cls-4{fill:#2980b9;}.cls-5{fill:#16a085;}.cls-6{fill:#3498db;}.cls-7{fill:#49b2fa;}.cls-8{fill:#e7e7e7;}.cls-9{fill:#48b2fa;}.cls-10{fill:#20d9b5;}.cls-11{fill:#c0392b;}.cls-12{fill:#f86556;}</style></defs><g id="_图层_1-2"><g><path class="cls-5" d="M0,92.02V34.71L56.4,0l2.17,1.25V60.74L2.17,93.27,0,92.02Z"/><path class="cls-8" d="M64.44,12.46L10.85,43.38,1.66,38.09,56.4,6.51c.15,2.46,3.57,4.8,8.05,5.95Z"/><path class="cls-3" d="M40.36,87.57l-22.54,13.01c-5.43,3.13-11.7,.12-13.49-1.06,.81,.41,1.16,.45,.2-.11-.94-.54-.89-.35-.2,.11-1.4-.72-4.18-2.6-4.16-4.72l-.17-.04V34.2l.16,.07c.15,2.04,2.81,3.82,4.17,4.51,1.46,.96,5.87,3.11,10.39,2.21l.46,.21v43.25l9.89-5.71c3.11-1.8,7.91-1.94,10.73-.31l5.09,2.94c2.82,1.62,2.57,4.4-.54,6.2ZM4.52,38.69c.96,.55,.61,.51-.2,.11-.69-.45-.74-.65,.2-.11Z"/><path class="cls-5" d="M15.18,39.05L69.62,7.63l1.96,1.13v60.65L15.18,101.61V39.05Z"/><path class="cls-10" d="M15.18,41.21l-2.33-1.34,3.02-1.74h.02S69.18,7.38,69.18,7.38l2.32,1.34L15.18,41.21Zm6.32-18.76c-.15,.07-.33,.11-.47,.19L5.04,31.87c-.05,.03-.08,.06-.12,.09l-1.95-1.13L56.4,0l2.01,1.16S21.5,22.45,21.5,22.45Z"/><path class="cls-10" d="M2.53,31.03l2.92-1.68,1.99,1.15-2.39,1.38c-3.83,2.21-.16,4.78,1.23,5.48,1.34,.88,5.75,3,9.6,.77l2.4-1.39,2.47,1.42-2.93,1.69c-5.43,3.13-11.7,.12-13.49-1.06,.81,.41,1.16,.45,.2-.11-.94-.54-.89-.35-.2,.11-2.06-1.05-7.19-4.65-1.79-7.77h0Zm3.75,6.17c.75,.43,.54,.43,0,.15-.51-.34-.59-.5,0-.15Z"/><path class="cls-11" d="M19.52,105.04V47.72L75.92,13.02l2.17,1.25v59.48L21.69,106.29l-2.17-1.25Z"/><path class="cls-8" d="M83.97,25.48L30.37,56.4l-9.18-5.3,54.73-31.58c.15,2.46,3.58,4.81,8.05,5.95h0Z"/><path class="cls-2" d="M59.88,100.59l-22.54,13.02c-5.42,3.13-11.67,.14-13.48-1.05,.79,.4,1.14,.44,.18-.11-.94-.55-.89-.35-.18,.11-1.4-.71-4.21-2.61-4.17-4.75l-.17-.03V47.22l.15,.07c.15,2.05,2.83,3.84,4.19,4.53,1.47,.97,5.87,3.1,10.38,2.2l.46,.21v43.24l9.89-5.71c3.11-1.8,7.91-1.94,10.73-.31l5.09,2.94c2.82,1.62,2.57,4.4-.54,6.19h0ZM24.05,51.7c.96,.55,.61,.52-.18,.11-.71-.46-.76-.66,.18-.11Z"/><path class="cls-11" d="M34.71,52.06l54.45-31.41,1.95,1.13v60.65l-56.4,32.2V52.06Z"/><path class="cls-1" d="M34.71,54.23l-2.33-1.34,3-1.73h.03s6.01-3.48,6.01-3.48l47.29-27.28,2.33,1.34L34.71,54.23Zm6.34-18.77c-.15,.07-.35,.11-.49,.2l-15.98,9.23c-.05,.03-.08,.06-.12,.09l-1.96-1.13L75.92,13.02l2.01,1.16-36.88,21.28Z"/><path class="cls-12" d="M22.05,44.04l2.92-1.69,1.99,1.15-2.39,1.38c-3.84,2.22-.14,4.79,1.25,5.49,1.36,.88,5.75,2.98,9.59,.77l2.4-1.39,2.47,1.42-2.93,1.69c-5.42,3.13-11.67,.14-13.48-1.05,.79,.41,1.14,.44,.18-.11-.94-.55-.89-.35-.18,.11-2.06-1.04-7.23-4.65-1.81-7.78Zm3.76,6.17c.74,.43,.54,.43,0,.16-.53-.35-.61-.51,0-.16Z"/><path class="cls-4" d="M41.21,118.05V60.74L97.61,26.03l2.17,1.25v59.48l-56.4,32.54s-2.17-1.25-2.17-1.25Z"/><path class="cls-8" d="M105.66,38.49l-53.6,30.92-9.18-5.3,54.73-31.58c.15,2.46,3.58,4.8,8.05,5.95Z"/><path class="cls-6" d="M81.57,113.6l-22.54,13.02c-5.42,3.13-11.68,.13-13.48-1.06,.8,.41,1.15,.44,.19-.11-.94-.54-.88-.35-.19,.11-1.4-.71-4.2-2.61-4.16-4.74l-.17-.03V60.23l.16,.07c.15,2.04,2.82,3.83,4.18,4.52,1.47,.97,5.88,3.11,10.39,2.2l.46,.21v43.25l9.89-5.71c3.11-1.8,7.92-1.94,10.73-.31l5.09,2.94c2.82,1.63,2.57,4.4-.54,6.2h0Zm-35.83-48.89c.96,.55,.61,.52-.19,.11-.69-.46-.75-.65,.19-.11Z"/><path class="cls-4" d="M56.4,126v-60.93l54.44-31.41,1.95,1.13v60.65l-54.63,31.52-1.76-.96Z"/><path class="cls-7" d="M56.4,67.24l-2.32-1.34,3.02-1.74,.37-.22,52.93-30.53,2.32,1.34-56.32,32.49Zm6.31-18.76c-.15,.07-.33,.1-.47,.19l-15.98,9.22c-.05,.03-.08,.06-.12,.09l-1.95-1.13,53.43-30.83,2.01,1.16-36.91,21.3h0Z"/><path class="cls-9" d="M43.74,57.06l2.92-1.69,1.98,1.15-2.39,1.38c-3.83,2.21-.16,4.78,1.23,5.48,1.34,.88,5.76,3,9.61,.77l2.4-1.39,2.47,1.42-2.93,1.69c-5.42,3.13-11.68,.13-13.48-1.06,.8,.41,1.15,.44,.19-.11-.94-.54-.88-.35-.19,.11-2.05-1.04-7.21-4.65-1.8-7.77h0Zm3.76,6.17c.75,.43,.54,.43-.01,.15-.51-.34-.59-.5,.01-.15Z"/></g></g></svg>