<?xml version="1.0" encoding="UTF-8"?><svg id="_图层_2" xmlns="http://www.w3.org/2000/svg" width="189.46" height="189.48" xmlns:xlink="http://www.w3.org/1999/xlink" viewBox="0 0 189.46 189.48"><defs><style>.cls-1{fill:url(#_未命名的渐变_374);}.cls-2{fill:url(#_未命名的渐变_200);}.cls-3{fill:url(#_未命名的渐变_212);}.cls-4{fill:url(#_未命名的渐变_6);}</style><linearGradient id="_未命名的渐变_212" x1="28.03" y1="115.64" x2="104.71" y2="76.22" gradientUnits="userSpaceOnUse"><stop offset="0" stop-color="#2f92d1"/><stop offset="1" stop-color="#0266ff"/></linearGradient><linearGradient id="_未命名的渐变_200" x1="9.92" y1="129.22" x2="108.2" y2="82.24" gradientUnits="userSpaceOnUse"><stop offset="0" stop-color="#2eb1fe"/><stop offset="1" stop-color="#26a4ff"/></linearGradient><linearGradient id="_未命名的渐变_6" x1="14.86" y1="139.34" x2="105.58" y2="88.04" gradientUnits="userSpaceOnUse"><stop offset="0" stop-color="#6ae3ff"/><stop offset="1" stop-color="#42cdff"/></linearGradient><linearGradient id="_未命名的渐变_374" x1="81.03" y1="102.44" x2="110.73" y2="84.62" gradientUnits="userSpaceOnUse"><stop offset="0" stop-color="#ffe29f"/><stop offset="1" stop-color="#ffa99f"/></linearGradient></defs><g id="_图层_1-2"><g><path class="cls-3" d="M55.43,42.68c-7.85,7-18,11.07-25.45,18.5-2.86,2.86-5.39,6.5-5.36,10.56,.02,2.15,.75,4.22,1.47,6.24,3.61,10.14,7.09,20.64,6.68,31.41-.18,4.85-1.15,9.65-1.15,14.5,0,4.85,1.15,9.97,4.52,13.43,5.63,5.77,15.02,4.93,22.34,8.26,10.78,4.91,16.34,18.54,27.76,21.66,7.76,2.12,16.03-1.42,22.35-6.44,3.78-3,7.18-6.59,11.47-8.77,8.79-4.46,20.04-2.44,28.22-7.95,6.78-4.57,9.62-13.1,11.31-21.14,1.69-8.04,2.84-16.57,7.66-23.19,1.66-2.28,3.69-4.22,5.89-5.98-.96-.15-1.93-.25-2.94-.25h0c-8.78,0-16.41,5.97-18.6,14.48-2.48,9.62-7.49,18.73-15.01,26.25-23.44,23.44-62.22,22.41-84.32-3.07-18.89-21.79-18.54-54.79,.78-76.2,7.93-8.79,17.88-14.53,28.46-17.23,8.46-2.16,14.35-9.83,14.35-18.57C95.88,8.46,87.21,.21,77.1,0c-4.39,15.7-9.63,31.93-21.67,42.67Z"/><path class="cls-2" d="M40.09,32.73c-6.3,4.34-13.55,7.46-18.87,12.98-6.46,6.69-9.38,16.68-7.53,25.83,1.79,8.87,7.65,16.62,8.63,25.62,1.18,10.84-4.94,21.4-4.24,32.29,.65,10.14,7.59,19.39,16.77,23.58,9.17,4.19,20.75,4.14,27.46,11.69,2.77,3.12,4.32,7.19,7.13,10.27,5.18,5.7,13.84,6.97,21.32,5.29,7.48-1.68,14.15-5.83,20.8-9.67,6.65-3.84,13.7-7.52,21.34-8.1,6.33-.48,12.87,1.19,18.93-.7,8-2.49,12.87-10.34,17.92-17.08,4.61-6.16,9.91-11.79,15.74-16.78,1.34-3.51,2.48-7.07,3.4-10.68,2.81-11.09-4.81-21.83-15.72-23.49-2.2,1.76-4.23,3.7-5.89,5.98-4.83,6.62-5.97,15.15-7.66,23.19-1.69,8.04-4.54,16.58-11.31,21.14-8.18,5.51-19.43,3.49-28.22,7.95-4.3,2.18-7.7,5.76-11.47,8.77-6.31,5.02-14.59,8.57-22.35,6.44-11.41-3.12-16.98-16.75-27.76-21.66-7.32-3.33-16.71-2.49-22.34-8.26-3.37-3.46-4.52-8.58-4.52-13.43,0-4.85,.96-9.65,1.15-14.5,.41-10.77-3.07-21.27-6.68-31.41-.72-2.02-1.45-4.09-1.47-6.24-.03-4.06,2.49-7.7,5.36-10.56,7.45-7.43,17.6-11.5,25.45-18.5C67.47,31.93,72.7,15.7,77.1,0c-1.7-.03-3.43,.13-5.17,.58-3.42,.88-6.8,1.95-10.13,3.21-3.94,11.64-11.63,21.99-21.71,28.94Z"/><path class="cls-4" d="M169.74,144.73c-5.04,6.74-9.92,14.58-17.92,17.08-6.06,1.89-12.61,.22-18.93,.7-7.65,.58-14.69,4.25-21.34,8.1-6.65,3.84-13.32,7.99-20.8,9.67-7.48,1.68-16.14,.41-21.32-5.29-2.81-3.08-4.36-7.16-7.13-10.27-6.72-7.56-18.3-7.51-27.46-11.69-9.18-4.19-16.12-13.44-16.77-23.58-.7-10.89,5.42-21.44,4.24-32.29-.98-8.99-6.84-16.75-8.63-25.62-1.85-9.15,1.07-19.14,7.53-25.83,5.33-5.51,12.57-8.63,18.87-12.98,10.08-6.95,17.77-17.3,21.71-28.94-13.26,5.01-25.63,13.05-36.02,24.14-34,36.28-34.43,93.39-.96,130.15,37.08,40.72,100.43,41.83,138.94,3.32,9.82-9.82,17.05-21.26,21.72-33.46-5.83,5-11.13,10.62-15.74,16.78Z"/><path class="cls-1" d="M109.45,79.95c-3.63-3.63-8.36-5.49-13.13-5.6-.15,0-.3-.02-.45-.02-2.79,0-5.57,.63-8.15,1.83-1.96,.92-3.81,2.17-5.43,3.79-7.5,7.5-7.5,19.65,0,27.15,3.72,3.72,8.6,5.59,13.48,5.62,2.29,.01,4.58-.4,6.76-1.2,2.52-.93,4.89-2.39,6.91-4.41,3.75-3.75,5.62-8.66,5.62-13.58,0-4.91-1.87-9.83-5.62-13.58Z"/></g></g></svg>