<?xml version="1.0" encoding="UTF-8"?><svg id="_图层_2" xmlns="http://www.w3.org/2000/svg" width="128" height="128" viewBox="0 0 128 128"><defs><style>.cls-1{fill:#e95420;}</style></defs><g id="_图层_1-2"><path class="cls-1" d="M64,0c35.32,0,64,28.68,64,64s-28.68,64-64,64S0,99.32,0,64,28.68,0,64,0Zm17.49,94.29c-4.12,2.3-5.59,7.51-3.28,11.63,2.3,4.12,7.51,5.59,11.63,3.28,.07-.04,.13-.07,.2-.11,4.06-2.41,5.39-7.65,2.98-11.71-2.37-3.98-7.47-5.35-11.52-3.09Zm-17.49-5.33c-3.63,0-7.22-.79-10.51-2.32l-5.94,10.64c4.96,2.45,10.55,3.85,16.45,3.85,3.35,0,6.69-.46,9.92-1.37,.57-3.56,2.72-6.67,5.84-8.46,3.11-1.8,6.88-2.11,10.24-.83,6.53-6.39,10.46-14.97,11.04-24.08l-12.19-.18c-1.14,12.88-11.93,22.75-24.85,22.75Zm-24.96-24.96c0-8.13,3.96-15.75,10.61-20.43l-6.24-10.46c-7.59,5.05-13.05,12.71-15.37,21.52,2.81,2.26,4.44,5.67,4.43,9.28,0,3.75-1.73,7.03-4.43,9.27,2.31,8.81,7.78,16.47,15.37,21.51l6.24-10.48c-6.66-4.57-10.63-12.14-10.61-20.22Zm-18.56-8.54c-4.72-.12-8.64,3.61-8.75,8.33-.12,4.72,3.61,8.64,8.33,8.75,.14,0,.28,0,.43,0,4.72-.12,8.45-4.04,8.33-8.75-.11-4.55-3.78-8.21-8.33-8.33Zm43.52-16.42c12.93,0,23.71,9.87,24.85,22.75l12.19-.18c-.59-9.11-4.52-17.69-11.04-24.09-6.18,2.35-13.1-.76-15.45-6.95-.29-.76-.5-1.55-.63-2.36-3.23-.88-6.57-1.33-9.92-1.33-5.92,0-11.49,1.39-16.45,3.84l5.94,10.64c3.29-1.53,6.88-2.32,10.51-2.32Zm17.49-5.34c4.09,2.36,9.31,.96,11.67-3.12,2.19-4.18,.58-9.35-3.6-11.55-3.95-2.07-8.83-.76-11.21,3.01-2.35,4.08-.95,9.3,3.13,11.66,0,0,0,0,0,0Z"/></g></svg>